<svg id="Capa_1" data-name="Capa 1" xmlns="http://www.w3.org/2000/svg" viewBox="0 0 1332.04 163.98" style="" class=""><defs><style>.cls-1{fill:none;stroke:#fff;stroke-miterlimit:10;stroke-width:3px;}.cls-2{fill:#fff;}</style></defs><title>logoanimacion</title><path class="cls-1 peAkFhLD_0" d="M0,27.4L227,27.4"></path><path class="cls-1 peAkFhLD_1" d="M227,27.65A24.5,24.5 0,1,1 276,27.65A24.5,24.5 0,1,1 227,27.65"></path><path class="cls-1 peAkFhLD_2" d="M276.49,27.4L503.49,27.4"></path><path class="cls-1 peAkFhLD_3" d="M503.49,27.65A24.5,24.5 0,1,1 552.49,27.65A24.5,24.5 0,1,1 503.49,27.65"></path><path class="cls-1 peAkFhLD_4" d="M552.89,26.04L779.89,26.04"></path><path class="cls-1 peAkFhLD_5" d="M779.89,26.29A24.5,24.5 0,1,1 828.89,26.29A24.5,24.5 0,1,1 779.89,26.29"></path><path class="cls-2 peAkFhLD_6" d="M425.79,574.52h-9.38v5.41h10.34l-.29,1.87H414.2V566.17h12.08V568h-9.87v4.62h9.38Z" transform="translate(-266.5 -497.35)"></path><path class="cls-2 peAkFhLD_7" d="M429.38,581.8V565.26h2.09V581.8Z" transform="translate(-266.5 -497.35)"></path><path class="cls-2 peAkFhLD_8" d="M436.31,576.72a3.67,3.67,0,0,0,3.81,3.7,3.4,3.4,0,0,0,3.3-1.79h2.09c-.6,1.66-2.17,3.48-5.5,3.48a5.88,5.88,0,0,1-.05-11.75c4.22,0,5.71,3.09,5.71,5.81v.55Zm7.18-1.49a3.25,3.25,0,0,0-3.55-3.24,3.34,3.34,0,0,0-3.59,3.24Z" transform="translate(-266.5 -497.35)"></path><path class="cls-2 peAkFhLD_9" d="M459.06,578.32c-.55,2-2.3,3.79-5.46,3.79a5.47,5.47,0,0,1-5.87-5.84,5.67,5.67,0,0,1,5.9-5.91c3.75,0,5.15,2.38,5.4,3.86h-2.09a3.23,3.23,0,0,0-3.34-2.17c-2.34,0-3.72,1.74-3.72,4.18s1.32,4.18,3.73,4.18a3.31,3.31,0,0,0,3.35-2.09Z" transform="translate(-266.5 -497.35)"></path><path class="cls-2 peAkFhLD_10" d="M460.42,570.66h2.21v-3.58h2.1v3.58h2.9v1.65h-2.9v6.1c0,1.28.33,1.84,1.54,1.84a5,5,0,0,0,1.09-.09v1.54a5.15,5.15,0,0,1-1.72.2c-2.31,0-3-1-3-3.22v-6.37h-2.21Z" transform="translate(-266.5 -497.35)"></path><path class="cls-2 peAkFhLD_11" d="M469.86,573.69c0-1,0-2,0-3h2c0,.33.08,1.5.08,2.51a4.61,4.61,0,0,1,4.5-2.81v2c-2.56,0-4.5,1.5-4.5,4.78v4.65h-2.1Z" transform="translate(-266.5 -497.35)"></path><path class="cls-2 peAkFhLD_12" d="M489.52,576.23a5.94,5.94,0,0,1-11.87,0,5.94,5.94,0,0,1,11.87,0Zm-9.72,0a3.87,3.87,0,0,0,3.8,4.15c2.55,0,3.77-1.9,3.77-4.13s-1.35-4.19-3.83-4.19S479.8,574,479.8,576.24Z" transform="translate(-266.5 -497.35)"></path><path class="cls-2 peAkFhLD_13" d="M492.25,573.54c0-1,0-1.92,0-2.88h2c.05.46.07,1.09.07,1.67a3.92,3.92,0,0,1,3.59-2,3.35,3.35,0,0,1,3.42,2.13,4.18,4.18,0,0,1,3.83-2.13c2.19,0,4,1.27,4,4.56v6.88h-2.07V575c0-1.29-.42-2.9-2.4-2.9-1.77,0-2.93,1.2-2.93,3.6v6.11h-2.08v-6.9c0-1.33-.45-2.81-2.41-2.81s-2.92,1.64-2.92,3.76v5.95h-2.08Z" transform="translate(-266.5 -497.35)"></path><path class="cls-2 peAkFhLD_14" d="M514,576.72a3.67,3.67,0,0,0,3.81,3.7,3.4,3.4,0,0,0,3.3-1.79h2.09c-.6,1.66-2.17,3.48-5.5,3.48a5.88,5.88,0,0,1-.05-11.75c4.23,0,5.71,3.09,5.71,5.81v.55Zm7.18-1.49a3.24,3.24,0,0,0-3.55-3.24,3.34,3.34,0,0,0-3.59,3.24Z" transform="translate(-266.5 -497.35)"></path><path class="cls-2 peAkFhLD_15" d="M536.74,578.32c-.55,2-2.3,3.79-5.46,3.79-4,0-5.86-2.67-5.86-5.84a5.66,5.66,0,0,1,5.89-5.91c3.75,0,5.16,2.38,5.4,3.86h-2.09a3.23,3.23,0,0,0-3.34-2.17c-2.34,0-3.72,1.74-3.72,4.18s1.32,4.18,3.73,4.18a3.34,3.34,0,0,0,3.36-2.09Z" transform="translate(-266.5 -497.35)"></path><path class="cls-2 peAkFhLD_16" d="M541.57,565.26v7.4a4.16,4.16,0,0,1,4.11-2.3c2.55,0,4.23,1.56,4.23,4.72v6.72H547.8v-6.41c0-1.87-.67-3.27-2.75-3.27-2.35,0-3.47,1.88-3.47,4.21v5.47h-2.1V565.26Z" transform="translate(-266.5 -497.35)"></path><path class="cls-2 peAkFhLD_17" d="M563.12,579c0,1.09.06,2.5.1,2.76h-2a11.7,11.7,0,0,1-.14-1.63c-.58,1.16-1.84,1.94-4.2,1.94-3.15,0-4.31-1.91-4.31-3.58,0-2.85,2.59-3.64,5.77-3.64h2.72v-.59c0-1.22-.53-2.36-2.9-2.36-2.13,0-2.63.94-2.85,2h-2.1c.14-1.47,1.13-3.54,4.95-3.54,4.05,0,5,2,5,3.82Zm-2-2.66H558.4c-2.55,0-3.75.57-3.75,2,0,1.11.82,2,2.67,2,2.95,0,3.75-1.72,3.75-3.6Z" transform="translate(-266.5 -497.35)"></path><path class="cls-2 peAkFhLD_18" d="M566.79,573.47c0-.94,0-2,0-2.81h2c0,.39.07,1.31.08,2.06a4.1,4.1,0,0,1,4-2.36c2.61,0,4.31,1.61,4.31,4.66v6.78h-2.11v-6.4c0-1.83-.7-3.28-2.77-3.28-2.32,0-3.45,1.76-3.45,4.34v5.34h-2.1Z" transform="translate(-266.5 -497.35)"></path><path class="cls-2 peAkFhLD_19" d="M580.87,565.26H583v2.51h-2.09Zm0,5.4H583V581.8h-2.09Z" transform="translate(-266.5 -497.35)"></path><path class="cls-2 peAkFhLD_20" d="M597,578.32c-.55,2-2.3,3.79-5.46,3.79a5.47,5.47,0,0,1-5.87-5.84,5.67,5.67,0,0,1,5.9-5.91c3.75,0,5.15,2.38,5.4,3.86H594.9a3.23,3.23,0,0,0-3.34-2.17c-2.35,0-3.72,1.74-3.72,4.18s1.32,4.18,3.73,4.18a3.32,3.32,0,0,0,3.35-2.09Z" transform="translate(-266.5 -497.35)"></path><path class="cls-2 peAkFhLD_21" d="M609.53,579c0,1.09.07,2.5.11,2.76h-2a11.7,11.7,0,0,1-.14-1.63c-.58,1.16-1.84,1.94-4.2,1.94-3.15,0-4.31-1.91-4.31-3.58,0-2.85,2.59-3.64,5.77-3.64h2.71v-.59c0-1.22-.52-2.36-2.89-2.36-2.13,0-2.63.94-2.86,2h-2.09c.13-1.47,1.12-3.54,4.94-3.54,4.06,0,4.95,2,4.95,3.82Zm-2-2.66h-2.66c-2.55,0-3.75.57-3.75,2,0,1.11.82,2,2.66,2,3,0,3.75-1.72,3.75-3.6Z" transform="translate(-266.5 -497.35)"></path><path class="cls-2 peAkFhLD_22" d="M613.14,581.8V565.26h2.09V581.8Z" transform="translate(-266.5 -497.35)"></path><path class="cls-2 peAkFhLD_23" d="M460.68,597.06h2.21v-3.58H465v3.58h2.91v1.65H465v6.1c0,1.28.33,1.84,1.54,1.84a5.06,5.06,0,0,0,1.1-.09v1.54a5.24,5.24,0,0,1-1.73.2c-2.3,0-3-1-3-3.22v-6.37h-2.21Z" transform="translate(-266.5 -497.35)"></path><path class="cls-2 peAkFhLD_24" d="M471.35,603.12a3.68,3.68,0,0,0,3.82,3.7,3.38,3.38,0,0,0,3.29-1.79h2.1c-.6,1.66-2.18,3.48-5.51,3.48a5.88,5.88,0,0,1-.05-11.75c4.23,0,5.72,3.09,5.72,5.81,0,.19,0,.33,0,.55Zm7.19-1.49a3.25,3.25,0,0,0-3.55-3.24,3.34,3.34,0,0,0-3.59,3.24Z" transform="translate(-266.5 -497.35)"></path><path class="cls-2 peAkFhLD_25" d="M494.1,604.72c-.54,2-2.29,3.79-5.46,3.79a5.47,5.47,0,0,1-5.86-5.84,5.67,5.67,0,0,1,5.89-5.91c3.76,0,5.16,2.38,5.4,3.86H492a3.22,3.22,0,0,0-3.34-2.17c-2.34,0-3.72,1.75-3.72,4.18s1.32,4.18,3.73,4.18a3.34,3.34,0,0,0,3.36-2.09Z" transform="translate(-266.5 -497.35)"></path><path class="cls-2 peAkFhLD_26" d="M498.93,591.66v7.4a4.19,4.19,0,0,1,4.12-2.3c2.55,0,4.23,1.56,4.23,4.72v6.72h-2.11v-6.41c0-1.87-.67-3.27-2.75-3.27-2.36,0-3.48,1.88-3.48,4.21v5.47h-2.09V591.66Z" transform="translate(-266.5 -497.35)"></path><path class="cls-2 peAkFhLD_27" d="M510.93,599.87c0-.94,0-2,0-2.81h2c0,.39.07,1.31.08,2.06a4.11,4.11,0,0,1,4-2.36c2.62,0,4.31,1.61,4.31,4.66v6.78h-2.1v-6.4c0-1.83-.71-3.28-2.78-3.28-2.31,0-3.45,1.76-3.45,4.34v5.34h-2.1Z" transform="translate(-266.5 -497.35)"></path><path class="cls-2 peAkFhLD_28" d="M525,591.66h2.09v2.51H525Zm0,5.4h2.09V608.2H525Z" transform="translate(-266.5 -497.35)"></path><path class="cls-2 peAkFhLD_29" d="M541.16,604.72c-.55,2-2.3,3.79-5.46,3.79-4,0-5.86-2.67-5.86-5.84a5.66,5.66,0,0,1,5.89-5.91c3.75,0,5.16,2.38,5.4,3.86H539a3.23,3.23,0,0,0-3.34-2.17c-2.34,0-3.72,1.75-3.72,4.18s1.32,4.18,3.73,4.18a3.34,3.34,0,0,0,3.36-2.09Z" transform="translate(-266.5 -497.35)"></path><path class="cls-2 peAkFhLD_30" d="M544,591.66h2.09v2.51H544Zm0,5.4h2.09V608.2H544Z" transform="translate(-266.5 -497.35)"></path><path class="cls-2 peAkFhLD_31" d="M559.4,605.45c0,1.08.06,2.49.1,2.75h-2a10.31,10.31,0,0,1-.13-1.63c-.59,1.16-1.85,1.94-4.21,1.94-3.15,0-4.3-1.91-4.3-3.58,0-2.85,2.58-3.64,5.76-3.64h2.72v-.59c0-1.22-.53-2.36-2.9-2.36-2.13,0-2.63.94-2.85,2h-2.1c.14-1.47,1.13-3.54,5-3.54,4,0,4.95,2,4.95,3.82Zm-2-2.67h-2.67c-2.55,0-3.75.57-3.75,2.05,0,1.11.82,2,2.67,2,2.95,0,3.75-1.72,3.75-3.6Z" transform="translate(-266.5 -497.35)"></path><path class="cls-2 peAkFhLD_32" d="M563.07,599.87c0-.94,0-2,0-2.81h2c0,.39.07,1.31.08,2.06a4.1,4.1,0,0,1,4-2.36c2.62,0,4.31,1.61,4.31,4.66v6.78h-2.11v-6.4c0-1.83-.7-3.28-2.77-3.28-2.32,0-3.45,1.76-3.45,4.34v5.34h-2.1Z" transform="translate(-266.5 -497.35)"></path><path class="cls-2 peAkFhLD_33" d="M744.13,566.17V581.8h-2.21V566.17Z" transform="translate(-266.5 -497.35)"></path><path class="cls-2 peAkFhLD_34" d="M747.86,573.47c0-.94,0-2,0-2.81h2c0,.39.07,1.31.08,2.06a4.1,4.1,0,0,1,4-2.36c2.62,0,4.31,1.61,4.31,4.66v6.78h-2.11v-6.4c0-1.83-.7-3.28-2.77-3.28-2.32,0-3.45,1.76-3.45,4.34v5.34h-2.1Z" transform="translate(-266.5 -497.35)"></path><path class="cls-2 peAkFhLD_35" d="M772.61,565.26v13.3c0,1.07,0,2.17,0,3.24h-2c-.06-.47-.08-1.14-.09-1.7-.56.95-1.51,2-4.09,2-3.22,0-5.4-2.41-5.4-5.79a5.73,5.73,0,0,1,5.66-6c2.61,0,3.51,1.18,3.83,1.71v-6.81Zm-9.43,11c0,2.05,1.24,4.08,3.68,4.08,2.65,0,3.74-1.71,3.74-4.17s-.87-4.09-3.67-4.09C764.4,572.1,763.18,574.17,763.18,576.28Z" transform="translate(-266.5 -497.35)"></path><path class="cls-2 peAkFhLD_36" d="M786.36,578.55c0,1.09,0,2.16,0,3.25h-2a16.3,16.3,0,0,1-.08-1.88c-.56,1.26-1.56,2.19-4,2.19s-4.18-1.29-4.18-4.54v-6.91h2.09v6.53c0,1.68.66,3.14,2.66,3.14,2.4,0,3.42-1.39,3.42-4.63v-5h2.09Z" transform="translate(-266.5 -497.35)"></path><path class="cls-2 peAkFhLD_37" d="M791,578.43c.4,1.32,1.53,2.08,3.54,2.08s2.9-.74,2.9-1.74-.56-1.56-3.39-1.9c-3.92-.49-4.65-1.85-4.65-3.24s1.15-3.27,4.71-3.27c3.85,0,4.94,2,5.06,3.32H797c-.17-.67-.62-1.76-3.07-1.76-2.06,0-2.5.89-2.5,1.53,0,.83.53,1.32,3.07,1.66,4.19.56,5,1.85,5,3.51,0,2-1.52,3.49-5.12,3.49-3.24,0-5.14-1.38-5.52-3.68Z" transform="translate(-266.5 -497.35)"></path><path class="cls-2 peAkFhLD_38" d="M800.66,570.66h2.21v-3.58H805v3.58h2.9v1.65H805v6.1c0,1.28.32,1.84,1.54,1.84a5,5,0,0,0,1.09-.09v1.54a5.15,5.15,0,0,1-1.72.2c-2.31,0-3-1-3-3.22v-6.37h-2.21Z" transform="translate(-266.5 -497.35)"></path><path class="cls-2 peAkFhLD_39" d="M810.1,573.69c0-1,0-2,0-3h2c0,.33.08,1.5.08,2.51a4.62,4.62,0,0,1,4.51-2.81v2c-2.56,0-4.51,1.5-4.51,4.78v4.65H810.1Z" transform="translate(-266.5 -497.35)"></path><path class="cls-2 peAkFhLD_40" d="M818.86,565.26H821v2.51h-2.09Zm0,5.4H821V581.8h-2.09Z" transform="translate(-266.5 -497.35)"></path><path class="cls-2 peAkFhLD_41" d="M834.3,579c0,1.09.06,2.5.1,2.76h-2a10.31,10.31,0,0,1-.13-1.63c-.59,1.16-1.85,1.94-4.21,1.94-3.15,0-4.3-1.91-4.3-3.58,0-2.85,2.58-3.64,5.76-3.64h2.72v-.59c0-1.22-.53-2.36-2.9-2.36-2.13,0-2.63.94-2.85,2h-2.1c.14-1.47,1.13-3.54,5-3.54,4,0,4.95,2,4.95,3.82Zm-2-2.66h-2.67c-2.55,0-3.75.57-3.75,2,0,1.11.82,2,2.67,2,3,0,3.75-1.72,3.75-3.6Z" transform="translate(-266.5 -497.35)"></path><path class="cls-2 peAkFhLD_42" d="M837.9,581.8V565.26H840V581.8Z" transform="translate(-266.5 -497.35)"></path><path class="cls-2 peAkFhLD_43" d="M746.17,592.57h6.42c5,0,8,3.29,8,7.56a7.69,7.69,0,0,1-8,8.07h-6.38Zm2.21,13.8h3.72c4.14,0,6.14-2.6,6.14-6.17s-2.34-5.8-6-5.81h-3.9Z" transform="translate(-266.5 -497.35)"></path><path class="cls-2 peAkFhLD_44" d="M765,603.12a3.68,3.68,0,0,0,3.82,3.7,3.4,3.4,0,0,0,3.3-1.79h2.09c-.6,1.66-2.17,3.48-5.5,3.48a5.88,5.88,0,0,1-.05-11.75c4.22,0,5.71,3.09,5.71,5.81,0,.19,0,.33,0,.55Zm7.19-1.49a3.25,3.25,0,0,0-3.55-3.24,3.34,3.34,0,0,0-3.59,3.24Z" transform="translate(-266.5 -497.35)"></path><path class="cls-2 peAkFhLD_45" d="M778.32,604.83c.4,1.32,1.53,2.08,3.54,2.08s2.9-.74,2.9-1.74-.56-1.56-3.39-1.9c-3.92-.48-4.65-1.85-4.65-3.24s1.15-3.27,4.71-3.27c3.85,0,4.94,2,5.06,3.32h-2.11c-.17-.67-.62-1.76-3.07-1.76-2.06,0-2.5.89-2.5,1.53,0,.83.53,1.32,3.07,1.66,4.19.56,5,1.85,5,3.51,0,2-1.52,3.49-5.12,3.49-3.24,0-5.14-1.38-5.52-3.68Z" transform="translate(-266.5 -497.35)"></path><path class="cls-2 peAkFhLD_46" d="M789.6,591.66h2.09v2.51H789.6Zm0,5.4h2.09V608.2H789.6Z" transform="translate(-266.5 -497.35)"></path><path class="cls-2 peAkFhLD_47" d="M806,606.74c0,4.19-1.38,6.65-6,6.65-4.37,0-5.26-2.52-5.48-3.83h2.14c.33,1.14,1.14,2.15,3.46,2.15,3.25,0,3.8-2.1,3.8-4.85v-.61c-.68,1.3-1.88,2.14-4.19,2.14a5.32,5.32,0,0,1-5.32-5.62,5.71,5.71,0,0,1,5.59-6c2.55,0,3.58,1.15,3.92,2,0-.54,0-1.41.06-1.72h2c0,1.08,0,2.16,0,3.24Zm-9.42-4.06a3.67,3.67,0,0,0,3.68,4c2.33,0,3.73-1.44,3.73-4.08s-1.32-4-3.61-4C797.81,598.52,796.6,600.59,796.6,602.68Z" transform="translate(-266.5 -497.35)"></path><path class="cls-2 peAkFhLD_48" d="M809.68,599.87c0-.94,0-2,0-2.81h2c0,.39.07,1.31.08,2.06a4.1,4.1,0,0,1,4-2.36c2.61,0,4.31,1.61,4.31,4.66v6.78H818v-6.4c0-1.83-.7-3.28-2.77-3.28-2.32,0-3.46,1.76-3.46,4.34v5.34h-2.09Z" transform="translate(-266.5 -497.35)"></path><path class="cls-2 peAkFhLD_49" d="M824.94,603.12a3.68,3.68,0,0,0,3.82,3.7,3.4,3.4,0,0,0,3.3-1.79h2.09c-.6,1.66-2.17,3.48-5.5,3.48a5.88,5.88,0,0,1-.06-11.75c4.23,0,5.72,3.09,5.72,5.81,0,.19,0,.33,0,.55Zm7.19-1.49a3.25,3.25,0,0,0-3.55-3.24,3.34,3.34,0,0,0-3.59,3.24Z" transform="translate(-266.5 -497.35)"></path><path class="cls-2 peAkFhLD_50" d="M837.05,600.09c0-1,0-2,0-3h2c0,.33.08,1.5.08,2.51a4.61,4.61,0,0,1,4.51-2.81v2c-2.56,0-4.51,1.5-4.51,4.78v4.65h-2.09Z" transform="translate(-266.5 -497.35)"></path><path class="cls-2 peAkFhLD_51" d="M754.32,653.13a8.21,8.21,0,0,1-16.41,0,8.21,8.21,0,0,1,16.41,0Zm-14.07-.06c0,3.36,2,6.41,5.92,6.41s5.81-2.91,5.81-6.3c0-3.24-2-6.29-6-6.29C742.39,646.89,740.25,649.77,740.25,653.07Z" transform="translate(-266.5 -497.35)"></path><path class="cls-2 peAkFhLD_52" d="M757.34,652.67c0-.94,0-2,0-2.81h2c0,.39.07,1.31.08,2.06a4.11,4.11,0,0,1,4-2.36c2.62,0,4.31,1.61,4.31,4.66V661h-2.1v-6.4c0-1.83-.71-3.29-2.78-3.29-2.31,0-3.45,1.77-3.45,4.35V661h-2.1Z" transform="translate(-266.5 -497.35)"></path><path class="cls-2 peAkFhLD_53" d="M788.25,657.52c-.54,2-2.29,3.79-5.46,3.79-4,0-5.86-2.67-5.86-5.84a5.66,5.66,0,0,1,5.89-5.91c3.76,0,5.16,2.38,5.4,3.86h-2.09a3.22,3.22,0,0,0-3.34-2.17c-2.34,0-3.72,1.75-3.72,4.18s1.32,4.18,3.73,4.18a3.34,3.34,0,0,0,3.36-2.09Z" transform="translate(-266.5 -497.35)"></path><path class="cls-2 peAkFhLD_54" d="M802,655.43a5.94,5.94,0,0,1-11.87,0,5.94,5.94,0,0,1,11.87,0Zm-9.73,0a3.87,3.87,0,0,0,3.8,4.15c2.55,0,3.77-1.9,3.77-4.13s-1.35-4.19-3.82-4.19S792.27,653.21,792.27,655.44Z" transform="translate(-266.5 -497.35)"></path><path class="cls-2 peAkFhLD_55" d="M815,657.75c0,1.09,0,2.16,0,3.25h-2a16.3,16.3,0,0,1-.08-1.88c-.56,1.26-1.56,2.19-4,2.19s-4.18-1.29-4.18-4.54v-6.91h2.09v6.53c0,1.68.66,3.14,2.66,3.14,2.4,0,3.42-1.39,3.42-4.63v-5H815Z" transform="translate(-266.5 -497.35)"></path><path class="cls-2 peAkFhLD_56" d="M818.53,652.89c0-1,0-2,0-3h2c0,.33.08,1.5.08,2.51a4.61,4.61,0,0,1,4.51-2.81v2c-2.56,0-4.51,1.5-4.51,4.78V661h-2.09Z" transform="translate(-266.5 -497.35)"></path><path class="cls-2 peAkFhLD_57" d="M828.61,657.63c.4,1.32,1.53,2.08,3.54,2.08s2.9-.74,2.9-1.74-.56-1.56-3.39-1.9c-3.91-.48-4.65-1.85-4.65-3.24s1.15-3.27,4.71-3.27c3.85,0,4.94,2,5.06,3.32h-2.11c-.16-.67-.62-1.76-3.07-1.76-2.06,0-2.5.89-2.5,1.53,0,.83.53,1.32,3.08,1.66,4.18.56,5,1.85,5,3.51,0,2-1.52,3.49-5.12,3.49-3.24,0-5.14-1.37-5.52-3.68Z" transform="translate(-266.5 -497.35)"></path><path class="cls-2 peAkFhLD_58" d="M841.07,655.92a3.69,3.69,0,0,0,3.81,3.7,3.4,3.4,0,0,0,3.3-1.79h2.09c-.6,1.66-2.17,3.48-5.5,3.48a5.88,5.88,0,0,1,0-11.75c4.23,0,5.72,3.09,5.72,5.81,0,.19,0,.33,0,.55Zm7.18-1.49a3.24,3.24,0,0,0-3.55-3.24,3.34,3.34,0,0,0-3.59,3.24Z" transform="translate(-266.5 -497.35)"></path><path class="cls-2 peAkFhLD_59" d="M1027.9,565.73h11.89v1.85h-9.68v5.09h9v1.88h-9v6.81h-2.21Z" transform="translate(-266.5 -497.35)"></path><path class="cls-2 peAkFhLD_60" d="M1041.81,573.25c0-1,0-2,0-3h2c0,.33.08,1.5.08,2.51a4.61,4.61,0,0,1,4.51-2.81v2c-2.56,0-4.51,1.51-4.51,4.79v4.65h-2.09Z" transform="translate(-266.5 -497.35)"></path><path class="cls-2 peAkFhLD_61" d="M1061.47,575.79a5.94,5.94,0,0,1-11.87,0,5.94,5.94,0,0,1,11.87,0Zm-9.73,0a3.87,3.87,0,0,0,3.8,4.15c2.55,0,3.77-1.9,3.77-4.13s-1.34-4.19-3.82-4.19S1051.74,573.57,1051.74,575.8Z" transform="translate(-266.5 -497.35)"></path><path class="cls-2 peAkFhLD_62" d="M1064.2,573c0-.94,0-2,0-2.81h2c0,.39.07,1.31.08,2.06a4.11,4.11,0,0,1,4-2.36c2.62,0,4.31,1.61,4.31,4.66v6.78h-2.1V575c0-1.83-.71-3.29-2.78-3.29-2.31,0-3.45,1.77-3.45,4.35v5.34h-2.1Z" transform="translate(-266.5 -497.35)"></path><path class="cls-2 peAkFhLD_63" d="M1076.52,570.22h2.21v-3.58h2.1v3.58h2.9v1.65h-2.9V578c0,1.27.33,1.84,1.54,1.84a5,5,0,0,0,1.09-.09v1.54a5.42,5.42,0,0,1-1.72.2c-2.31,0-3-1-3-3.22v-6.37h-2.21Z" transform="translate(-266.5 -497.35)"></path><path class="cls-2 peAkFhLD_64" d="M1087.19,576.28A3.68,3.68,0,0,0,1091,580a3.4,3.4,0,0,0,3.3-1.79h2.09c-.6,1.66-2.17,3.48-5.5,3.48a5.88,5.88,0,0,1-.05-11.75c4.23,0,5.72,3.09,5.72,5.81,0,.19,0,.33,0,.55Zm7.18-1.49a3.25,3.25,0,0,0-3.55-3.25,3.35,3.35,0,0,0-3.59,3.25Z" transform="translate(-266.5 -497.35)"></path><path class="cls-2 peAkFhLD_65" d="M1099.29,573c0-.94,0-2,0-2.81h2c0,.39.07,1.31.08,2.06a4.11,4.11,0,0,1,4-2.36c2.62,0,4.31,1.61,4.31,4.66v6.78h-2.1V575c0-1.83-.71-3.29-2.78-3.29-2.32,0-3.45,1.77-3.45,4.35v5.34h-2.1Z" transform="translate(-266.5 -497.35)"></path><path class="cls-2 peAkFhLD_66" d="M1124,564.82v13.3c0,1.07,0,2.17,0,3.24h-2c-.06-.47-.08-1.14-.09-1.7-.56,1-1.51,2-4.09,2-3.22,0-5.4-2.41-5.4-5.79a5.73,5.73,0,0,1,5.66-6c2.61,0,3.52,1.18,3.83,1.71v-6.81Zm-9.43,11c0,2,1.25,4.08,3.68,4.08,2.65,0,3.74-1.71,3.74-4.17s-.87-4.09-3.67-4.09C1115.84,571.66,1114.61,573.73,1114.61,575.84Z" transform="translate(-266.5 -497.35)"></path><path class="cls-2 peAkFhLD_67" d="M1021.51,592.13h6.43c5,0,8,3.29,8,7.56a7.68,7.68,0,0,1-8,8.07h-6.39Zm2.21,13.8h3.73c4.14,0,6.13-2.6,6.13-6.18s-2.33-5.79-6-5.8h-3.9Z" transform="translate(-266.5 -497.35)"></path><path class="cls-2 peAkFhLD_68" d="M1040.34,602.68a3.69,3.69,0,0,0,3.81,3.7,3.4,3.4,0,0,0,3.3-1.79h2.09c-.59,1.66-2.17,3.48-5.5,3.48a5.88,5.88,0,0,1,0-11.75c4.23,0,5.72,3.09,5.72,5.81,0,.19,0,.33,0,.55Zm7.19-1.49A3.26,3.26,0,0,0,1044,598a3.35,3.35,0,0,0-3.59,3.24Z" transform="translate(-266.5 -497.35)"></path><path class="cls-2 peAkFhLD_69" d="M1053.09,596.62c1,2.57,3.44,8,3.85,9.21h0c.31-1,1-2.83,3.78-9.21h2.15L1058,607.76h-2.28l-4.92-11.14Z" transform="translate(-266.5 -497.35)"></path><path class="cls-2 peAkFhLD_70" d="M1066.06,602.68a3.67,3.67,0,0,0,3.81,3.7,3.4,3.4,0,0,0,3.3-1.79h2.09c-.6,1.66-2.17,3.48-5.5,3.48a5.88,5.88,0,0,1,0-11.75c4.23,0,5.71,3.09,5.71,5.81v.55Zm7.18-1.49a3.24,3.24,0,0,0-3.55-3.24,3.34,3.34,0,0,0-3.59,3.24Z" transform="translate(-266.5 -497.35)"></path><path class="cls-2 peAkFhLD_71" d="M1078.09,607.76V591.22h2.09v16.54Z" transform="translate(-266.5 -497.35)"></path><path class="cls-2 peAkFhLD_72" d="M1094.79,602.19a5.94,5.94,0,0,1-11.87,0,5.94,5.94,0,0,1,11.87,0Zm-9.73,0a3.87,3.87,0,0,0,3.8,4.15c2.55,0,3.77-1.9,3.77-4.13s-1.34-4.19-3.82-4.19S1085.06,600,1085.06,602.2Z" transform="translate(-266.5 -497.35)"></path><path class="cls-2 peAkFhLD_73" d="M1099.62,606.11v6.53h-2.1V599.4c0-.92,0-1.85,0-2.78h2a16.5,16.5,0,0,1,.08,1.92,4.55,4.55,0,0,1,4.28-2.22c3,0,5.19,2.45,5.19,5.68,0,3.63-2.52,6.07-5.54,6.07A4.17,4.17,0,0,1,1099.62,606.11Zm7.31-4c0-2-1.14-4-3.65-4s-3.72,1.83-3.72,4.17,1.22,4,3.68,4S1106.93,604.31,1106.93,602.08Z" transform="translate(-266.5 -497.35)"></path><path class="cls-2 peAkFhLD_74" d="M1113.09,602.68a3.69,3.69,0,0,0,3.82,3.7,3.4,3.4,0,0,0,3.3-1.79h2.09c-.6,1.66-2.17,3.48-5.51,3.48a5.88,5.88,0,0,1,0-11.75c4.23,0,5.72,3.09,5.72,5.81,0,.19,0,.33,0,.55Zm7.19-1.49a3.25,3.25,0,0,0-3.55-3.24,3.34,3.34,0,0,0-3.59,3.24Z" transform="translate(-266.5 -497.35)"></path><path class="cls-2 peAkFhLD_75" d="M1125.2,599.65c0-1,0-2,0-3h2c0,.33.08,1.5.08,2.51a4.61,4.61,0,0,1,4.51-2.81v2c-2.56,0-4.51,1.5-4.51,4.78v4.65h-2.09Z" transform="translate(-266.5 -497.35)"></path><path class="cls-1 peAkFhLD_76" d="M829.35,25.75L1056.35,25.75"></path><path class="cls-1 peAkFhLD_77" d="M1056.35,26A24.5,24.5 0,1,1 1105.35,26A24.5,24.5 0,1,1 1056.35,26"></path><path class="cls-2 peAkFhLD_78" d="M1316.42,565.43v8.89c0,4.09,2.41,5.22,4.78,5.22,2.87,0,4.59-1.35,4.59-5.22v-8.89H1328v8.86c0,5.09-2.66,7.11-6.88,7.11s-6.91-2.07-6.91-6.94v-9Z" transform="translate(-266.5 -497.35)"></path><path class="cls-2 peAkFhLD_79" d="M1342.49,581.07l-5.06-6.5h-.06l-4.91,6.5h-2.54l6.2-8-5.94-7.62h2.65l4.7,6.09h0l4.73-6.08h2.51l-6,7.57,6.38,8.07Z" transform="translate(-266.5 -497.35)"></path><path class="cls-2 peAkFhLD_80" d="M1359.82,574.52v1.81h-7v-1.81Z" transform="translate(-266.5 -497.35)"></path><path class="cls-2 peAkFhLD_81" d="M1371.86,565.43v8.89c0,4.09,2.41,5.22,4.78,5.22,2.86,0,4.59-1.35,4.59-5.22v-8.89h2.21v8.86c0,5.09-2.66,7.11-6.88,7.11s-6.91-2.07-6.91-6.94v-9Z" transform="translate(-266.5 -497.35)"></path><path class="cls-2 peAkFhLD_82" d="M1390.06,565.43v15.64h-2.21V565.43Z" transform="translate(-266.5 -497.35)"></path><path class="cls-2 peAkFhLD_83" d="M1304.37,591.83h6.43c5,0,8,3.29,8,7.57a7.68,7.68,0,0,1-8,8.07h-6.39Zm2.21,13.8h3.73c4.14,0,6.14-2.59,6.14-6.17s-2.34-5.79-6-5.8h-3.9Z" transform="translate(-266.5 -497.35)"></path><path class="cls-2 peAkFhLD_84" d="M1323.2,602.38a3.69,3.69,0,0,0,3.81,3.71,3.4,3.4,0,0,0,3.3-1.79h2.1c-.6,1.65-2.18,3.47-5.51,3.47a5.52,5.52,0,0,1-5.8-5.84,5.58,5.58,0,0,1,5.75-5.91c4.23,0,5.72,3.1,5.72,5.81,0,.19,0,.34,0,.55Zm7.19-1.48a3.26,3.26,0,0,0-3.55-3.25,3.36,3.36,0,0,0-3.6,3.25Z" transform="translate(-266.5 -497.35)"></path><path class="cls-2 peAkFhLD_85" d="M1336.52,604.09c.4,1.32,1.53,2.09,3.55,2.09s2.89-.75,2.89-1.74-.56-1.56-3.38-1.9c-3.92-.49-4.66-1.85-4.66-3.24s1.15-3.28,4.72-3.28c3.85,0,4.94,2,5,3.33h-2.1c-.17-.67-.63-1.76-3.07-1.76-2.06,0-2.5.89-2.5,1.52,0,.83.52,1.33,3.07,1.67,4.19.56,5,1.85,5,3.5,0,2-1.53,3.49-5.12,3.49-3.25,0-5.14-1.37-5.52-3.68Z" transform="translate(-266.5 -497.35)"></path><path class="cls-2 peAkFhLD_86" d="M1347.8,590.92h2.1v2.52h-2.1Zm0,5.41h2.1v11.14h-2.1Z" transform="translate(-266.5 -497.35)"></path><path class="cls-2 peAkFhLD_87" d="M1364.23,606c0,4.19-1.39,6.64-6,6.64-4.37,0-5.27-2.51-5.48-3.82h2.14c.33,1.13,1.14,2.14,3.46,2.14,3.25,0,3.79-2.09,3.79-4.85v-.6c-.67,1.3-1.87,2.14-4.19,2.14a5.33,5.33,0,0,1-5.32-5.63,5.72,5.72,0,0,1,5.6-6c2.54,0,3.58,1.16,3.91,2,0-.54,0-1.4.07-1.71h2c0,1.08,0,2.15,0,3.23ZM1354.8,602a3.68,3.68,0,0,0,3.69,3.95c2.33,0,3.72-1.45,3.72-4.08s-1.32-4-3.6-4C1356,597.78,1354.8,599.86,1354.8,602Z" transform="translate(-266.5 -497.35)"></path><path class="cls-2 peAkFhLD_88" d="M1367.88,599.14c0-.94,0-2,0-2.81h2c0,.38.08,1.3.08,2.06a4.13,4.13,0,0,1,4-2.37c2.61,0,4.31,1.61,4.31,4.67v6.78h-2.11v-6.41c0-1.83-.7-3.28-2.77-3.28-2.32,0-3.46,1.77-3.46,4.35v5.34h-2.1Z" transform="translate(-266.5 -497.35)"></path><path class="cls-2 peAkFhLD_89" d="M1383.15,602.38a3.69,3.69,0,0,0,3.81,3.71,3.4,3.4,0,0,0,3.3-1.79h2.1c-.6,1.65-2.18,3.47-5.51,3.47a5.52,5.52,0,0,1-5.8-5.84,5.58,5.58,0,0,1,5.75-5.91c4.23,0,5.72,3.1,5.72,5.81,0,.19,0,.34,0,.55Zm7.18-1.48a3.24,3.24,0,0,0-3.54-3.25,3.35,3.35,0,0,0-3.6,3.25Z" transform="translate(-266.5 -497.35)"></path><path class="cls-2 peAkFhLD_90" d="M1395.26,599.36c0-1,0-2,0-3h2c0,.33.08,1.5.08,2.51a4.61,4.61,0,0,1,4.51-2.81v2c-2.56,0-4.51,1.51-4.51,4.79v4.65h-2.09Z" transform="translate(-266.5 -497.35)"></path><path class="cls-2 peAkFhLD_91" d="M1310.22,652.4a8.21,8.21,0,1,1-16.41,0,8.21,8.21,0,0,1,16.41,0Zm-14.07-.07c0,3.37,2,6.41,5.92,6.41s5.81-2.9,5.81-6.29-2-6.29-6-6.29C1298.28,646.16,1296.15,649,1296.15,652.33Z" transform="translate(-266.5 -497.35)"></path><path class="cls-2 peAkFhLD_92" d="M1313.23,651.94c0-.94,0-2,0-2.81h2c0,.38.07,1.3.08,2.06a4.11,4.11,0,0,1,4-2.37c2.61,0,4.31,1.61,4.31,4.67v6.78h-2.11v-6.41c0-1.83-.7-3.28-2.77-3.28-2.32,0-3.46,1.77-3.46,4.35v5.34h-2.1Z" transform="translate(-266.5 -497.35)"></path><path class="cls-2 peAkFhLD_93" d="M1348.42,655.69c-.89,2.68-2.85,4.91-7.31,4.91-5.19,0-8-3.64-8-8.12a7.87,7.87,0,0,1,8.12-8.18c4.52,0,6.64,2.43,7.25,5h-2.27c-.67-1.64-1.93-3.15-5-3.15-3.59,0-5.76,2.65-5.76,6.25s2.15,6.36,5.78,6.36c2.94,0,4.12-1.27,5-3.07Z" transform="translate(-266.5 -497.35)"></path><path class="cls-2 peAkFhLD_94" d="M1362.51,654.69a5.94,5.94,0,0,1-11.87,0,5.94,5.94,0,0,1,11.87,0Zm-9.72,0a3.87,3.87,0,0,0,3.8,4.15c2.55,0,3.77-1.9,3.77-4.13s-1.35-4.19-3.82-4.19S1352.79,652.48,1352.79,654.71Z" transform="translate(-266.5 -497.35)"></path><path class="cls-2 peAkFhLD_95" d="M1375.48,657c0,1.08,0,2.16,0,3.25h-2c0-.31-.07-1.1-.08-1.89-.55,1.27-1.55,2.19-4,2.19s-4.19-1.28-4.19-4.53v-6.91h2.1v6.52c0,1.69.66,3.15,2.66,3.15,2.4,0,3.42-1.39,3.42-4.64v-5h2.09Z" transform="translate(-266.5 -497.35)"></path><path class="cls-2 peAkFhLD_96" d="M1379,652.16c0-1,0-2,0-3h2c0,.33.08,1.5.08,2.51a4.61,4.61,0,0,1,4.5-2.81v2c-2.56,0-4.5,1.51-4.5,4.79v4.65H1379Z" transform="translate(-266.5 -497.35)"></path><path class="cls-2 peAkFhLD_97" d="M1389.13,656.89c.39,1.32,1.52,2.09,3.54,2.09s2.89-.75,2.89-1.74-.55-1.56-3.38-1.9c-3.92-.49-4.65-1.85-4.65-3.24s1.14-3.28,4.71-3.28c3.85,0,4.94,2,5,3.33h-2.1c-.17-.67-.62-1.76-3.07-1.76-2.06,0-2.5.89-2.5,1.52,0,.83.52,1.33,3.07,1.67,4.19.56,5,1.85,5,3.5,0,2-1.53,3.49-5.12,3.49-3.25,0-5.14-1.37-5.52-3.68Z" transform="translate(-266.5 -497.35)"></path><path class="cls-2 peAkFhLD_98" d="M1401.58,655.18a3.69,3.69,0,0,0,3.82,3.71,3.4,3.4,0,0,0,3.3-1.79h2.09c-.6,1.65-2.17,3.47-5.5,3.47a5.88,5.88,0,0,1,0-11.75c4.22,0,5.71,3.1,5.71,5.81v.55Zm7.19-1.48a3.26,3.26,0,0,0-3.55-3.25,3.35,3.35,0,0,0-3.59,3.25Z" transform="translate(-266.5 -497.35)"></path><path class="cls-1 peAkFhLD_99" d="M1332.04,25.95L1105.04,25.95"></path><style data-made-with="vivus-instant">.peAkFhLD_0{stroke-dasharray:227 229;stroke-dashoffset:228;animation:peAkFhLD_draw 3000ms ease-out 0ms forwards;}.peAkFhLD_1{stroke-dasharray:154 156;stroke-dashoffset:155;animation:peAkFhLD_draw 3000ms ease-out 0ms forwards;}.peAkFhLD_2{stroke-dasharray:227 229;stroke-dashoffset:228;animation:peAkFhLD_draw 3000ms ease-out 0ms forwards;}.peAkFhLD_3{stroke-dasharray:154 156;stroke-dashoffset:155;animation:peAkFhLD_draw 3000ms ease-out 0ms forwards;}.peAkFhLD_4{stroke-dasharray:227 229;stroke-dashoffset:228;animation:peAkFhLD_draw 3000ms ease-out 0ms forwards;}.peAkFhLD_5{stroke-dasharray:154 156;stroke-dashoffset:155;animation:peAkFhLD_draw 3000ms ease-out 0ms forwards;}.peAkFhLD_6{stroke-dasharray:95 97;stroke-dashoffset:96;animation:peAkFhLD_draw 3000ms ease-out 0ms forwards;}.peAkFhLD_7{stroke-dasharray:38 40;stroke-dashoffset:39;animation:peAkFhLD_draw 3000ms ease-out 0ms forwards;}.peAkFhLD_8{stroke-dasharray:75 77;stroke-dashoffset:76;animation:peAkFhLD_draw 3000ms ease-out 0ms forwards;}.peAkFhLD_9{stroke-dasharray:59 61;stroke-dashoffset:60;animation:peAkFhLD_draw 3000ms ease-out 0ms forwards;}.peAkFhLD_10{stroke-dasharray:48 50;stroke-dashoffset:49;animation:peAkFhLD_draw 3000ms ease-out 0ms forwards;}.peAkFhLD_11{stroke-dasharray:38 40;stroke-dashoffset:39;animation:peAkFhLD_draw 3000ms ease-out 0ms forwards;}.peAkFhLD_12{stroke-dasharray:62 64;stroke-dashoffset:63;animation:peAkFhLD_draw 3000ms ease-out 0ms forwards;}.peAkFhLD_13{stroke-dasharray:93 95;stroke-dashoffset:94;animation:peAkFhLD_draw 3000ms ease-out 0ms forwards;}.peAkFhLD_14{stroke-dasharray:75 77;stroke-dashoffset:76;animation:peAkFhLD_draw 3000ms ease-out 0ms forwards;}.peAkFhLD_15{stroke-dasharray:59 61;stroke-dashoffset:60;animation:peAkFhLD_draw 3000ms ease-out 0ms forwards;}.peAkFhLD_16{stroke-dasharray:73 75;stroke-dashoffset:74;animation:peAkFhLD_draw 3000ms ease-out 0ms forwards;}.peAkFhLD_17{stroke-dasharray:76 78;stroke-dashoffset:77;animation:peAkFhLD_draw 3000ms ease-out 0ms forwards;}.peAkFhLD_18{stroke-dasharray:62 64;stroke-dashoffset:63;animation:peAkFhLD_draw 3000ms ease-out 0ms forwards;}.peAkFhLD_19{stroke-dasharray:36 38;stroke-dashoffset:37;animation:peAkFhLD_draw 3000ms ease-out 0ms forwards;}.peAkFhLD_20{stroke-dasharray:59 61;stroke-dashoffset:60;animation:peAkFhLD_draw 3000ms ease-out 0ms forwards;}.peAkFhLD_21{stroke-dasharray:76 78;stroke-dashoffset:77;animation:peAkFhLD_draw 3000ms ease-out 0ms forwards;}.peAkFhLD_22{stroke-dasharray:38 40;stroke-dashoffset:39;animation:peAkFhLD_draw 3000ms ease-out 0ms forwards;}.peAkFhLD_23{stroke-dasharray:48 50;stroke-dashoffset:49;animation:peAkFhLD_draw 3000ms ease-out 0ms forwards;}.peAkFhLD_24{stroke-dasharray:75 77;stroke-dashoffset:76;animation:peAkFhLD_draw 3000ms ease-out 0ms forwards;}.peAkFhLD_25{stroke-dasharray:59 61;stroke-dashoffset:60;animation:peAkFhLD_draw 3000ms ease-out 0ms forwards;}.peAkFhLD_26{stroke-dasharray:73 75;stroke-dashoffset:74;animation:peAkFhLD_draw 3000ms ease-out 0ms forwards;}.peAkFhLD_27{stroke-dasharray:62 64;stroke-dashoffset:63;animation:peAkFhLD_draw 3000ms ease-out 0ms forwards;}.peAkFhLD_28{stroke-dasharray:36 38;stroke-dashoffset:37;animation:peAkFhLD_draw 3000ms ease-out 0ms forwards;}.peAkFhLD_29{stroke-dasharray:59 61;stroke-dashoffset:60;animation:peAkFhLD_draw 3000ms ease-out 0ms forwards;}.peAkFhLD_30{stroke-dasharray:36 38;stroke-dashoffset:37;animation:peAkFhLD_draw 3000ms ease-out 0ms forwards;}.peAkFhLD_31{stroke-dasharray:76 78;stroke-dashoffset:77;animation:peAkFhLD_draw 3000ms ease-out 0ms forwards;}.peAkFhLD_32{stroke-dasharray:62 64;stroke-dashoffset:63;animation:peAkFhLD_draw 3000ms ease-out 0ms forwards;}.peAkFhLD_33{stroke-dasharray:36 38;stroke-dashoffset:37;animation:peAkFhLD_draw 3000ms ease-out 0ms forwards;}.peAkFhLD_34{stroke-dasharray:62 64;stroke-dashoffset:63;animation:peAkFhLD_draw 3000ms ease-out 0ms forwards;}.peAkFhLD_35{stroke-dasharray:82 84;stroke-dashoffset:83;animation:peAkFhLD_draw 3000ms ease-out 0ms forwards;}.peAkFhLD_36{stroke-dasharray:61 63;stroke-dashoffset:62;animation:peAkFhLD_draw 3000ms ease-out 0ms forwards;}.peAkFhLD_37{stroke-dasharray:69 71;stroke-dashoffset:70;animation:peAkFhLD_draw 3000ms ease-out 0ms forwards;}.peAkFhLD_38{stroke-dasharray:48 50;stroke-dashoffset:49;animation:peAkFhLD_draw 3000ms ease-out 0ms forwards;}.peAkFhLD_39{stroke-dasharray:38 40;stroke-dashoffset:39;animation:peAkFhLD_draw 3000ms ease-out 0ms forwards;}.peAkFhLD_40{stroke-dasharray:36 38;stroke-dashoffset:37;animation:peAkFhLD_draw 3000ms ease-out 0ms forwards;}.peAkFhLD_41{stroke-dasharray:76 78;stroke-dashoffset:77;animation:peAkFhLD_draw 3000ms ease-out 0ms forwards;}.peAkFhLD_42{stroke-dasharray:38 40;stroke-dashoffset:39;animation:peAkFhLD_draw 3000ms ease-out 0ms forwards;}.peAkFhLD_43{stroke-dasharray:93 95;stroke-dashoffset:94;animation:peAkFhLD_draw 3000ms ease-out 0ms forwards;}.peAkFhLD_44{stroke-dasharray:75 77;stroke-dashoffset:76;animation:peAkFhLD_draw 3000ms ease-out 0ms forwards;}.peAkFhLD_45{stroke-dasharray:69 71;stroke-dashoffset:70;animation:peAkFhLD_draw 3000ms ease-out 0ms forwards;}.peAkFhLD_46{stroke-dasharray:36 38;stroke-dashoffset:37;animation:peAkFhLD_draw 3000ms ease-out 0ms forwards;}.peAkFhLD_47{stroke-dasharray:98 100;stroke-dashoffset:99;animation:peAkFhLD_draw 3000ms ease-out 0ms forwards;}.peAkFhLD_48{stroke-dasharray:62 64;stroke-dashoffset:63;animation:peAkFhLD_draw 3000ms ease-out 0ms forwards;}.peAkFhLD_49{stroke-dasharray:75 77;stroke-dashoffset:76;animation:peAkFhLD_draw 3000ms ease-out 0ms forwards;}.peAkFhLD_50{stroke-dasharray:38 40;stroke-dashoffset:39;animation:peAkFhLD_draw 3000ms ease-out 0ms forwards;}.peAkFhLD_51{stroke-dasharray:90 92;stroke-dashoffset:91;animation:peAkFhLD_draw 3000ms ease-out 0ms forwards;}.peAkFhLD_52{stroke-dasharray:62 64;stroke-dashoffset:63;animation:peAkFhLD_draw 3000ms ease-out 0ms forwards;}.peAkFhLD_53{stroke-dasharray:59 61;stroke-dashoffset:60;animation:peAkFhLD_draw 3000ms ease-out 0ms forwards;}.peAkFhLD_54{stroke-dasharray:62 64;stroke-dashoffset:63;animation:peAkFhLD_draw 3000ms ease-out 0ms forwards;}.peAkFhLD_55{stroke-dasharray:61 63;stroke-dashoffset:62;animation:peAkFhLD_draw 3000ms ease-out 0ms forwards;}.peAkFhLD_56{stroke-dasharray:38 40;stroke-dashoffset:39;animation:peAkFhLD_draw 3000ms ease-out 0ms forwards;}.peAkFhLD_57{stroke-dasharray:69 71;stroke-dashoffset:70;animation:peAkFhLD_draw 3000ms ease-out 0ms forwards;}.peAkFhLD_58{stroke-dasharray:75 77;stroke-dashoffset:76;animation:peAkFhLD_draw 3000ms ease-out 0ms forwards;}.peAkFhLD_59{stroke-dasharray:74 76;stroke-dashoffset:75;animation:peAkFhLD_draw 3000ms ease-out 0ms forwards;}.peAkFhLD_60{stroke-dasharray:38 40;stroke-dashoffset:39;animation:peAkFhLD_draw 3000ms ease-out 0ms forwards;}.peAkFhLD_61{stroke-dasharray:62 64;stroke-dashoffset:63;animation:peAkFhLD_draw 3000ms ease-out 0ms forwards;}.peAkFhLD_62{stroke-dasharray:62 64;stroke-dashoffset:63;animation:peAkFhLD_draw 3000ms ease-out 0ms forwards;}.peAkFhLD_63{stroke-dasharray:48 50;stroke-dashoffset:49;animation:peAkFhLD_draw 3000ms ease-out 0ms forwards;}.peAkFhLD_64{stroke-dasharray:75 77;stroke-dashoffset:76;animation:peAkFhLD_draw 3000ms ease-out 0ms forwards;}.peAkFhLD_65{stroke-dasharray:62 64;stroke-dashoffset:63;animation:peAkFhLD_draw 3000ms ease-out 0ms forwards;}.peAkFhLD_66{stroke-dasharray:82 84;stroke-dashoffset:83;animation:peAkFhLD_draw 3000ms ease-out 0ms forwards;}.peAkFhLD_67{stroke-dasharray:93 95;stroke-dashoffset:94;animation:peAkFhLD_draw 3000ms ease-out 0ms forwards;}.peAkFhLD_68{stroke-dasharray:74 76;stroke-dashoffset:75;animation:peAkFhLD_draw 3000ms ease-out 0ms forwards;}.peAkFhLD_69{stroke-dasharray:51 53;stroke-dashoffset:52;animation:peAkFhLD_draw 3000ms ease-out 0ms forwards;}.peAkFhLD_70{stroke-dasharray:75 77;stroke-dashoffset:76;animation:peAkFhLD_draw 3000ms ease-out 0ms forwards;}.peAkFhLD_71{stroke-dasharray:38 40;stroke-dashoffset:39;animation:peAkFhLD_draw 3000ms ease-out 0ms forwards;}.peAkFhLD_72{stroke-dasharray:62 64;stroke-dashoffset:63;animation:peAkFhLD_draw 3000ms ease-out 0ms forwards;}.peAkFhLD_73{stroke-dasharray:81 83;stroke-dashoffset:82;animation:peAkFhLD_draw 3000ms ease-out 0ms forwards;}.peAkFhLD_74{stroke-dasharray:75 77;stroke-dashoffset:76;animation:peAkFhLD_draw 3000ms ease-out 0ms forwards;}.peAkFhLD_75{stroke-dasharray:38 40;stroke-dashoffset:39;animation:peAkFhLD_draw 3000ms ease-out 0ms forwards;}.peAkFhLD_76{stroke-dasharray:227 229;stroke-dashoffset:228;animation:peAkFhLD_draw 3000ms ease-out 0ms forwards;}.peAkFhLD_77{stroke-dasharray:154 156;stroke-dashoffset:155;animation:peAkFhLD_draw 3000ms ease-out 0ms forwards;}.peAkFhLD_78{stroke-dasharray:79 81;stroke-dashoffset:80;animation:peAkFhLD_draw 3000ms ease-out 0ms forwards;}.peAkFhLD_79{stroke-dasharray:82 84;stroke-dashoffset:83;animation:peAkFhLD_draw 3000ms ease-out 0ms forwards;}.peAkFhLD_80{stroke-dasharray:18 20;stroke-dashoffset:19;animation:peAkFhLD_draw 3000ms ease-out 0ms forwards;}.peAkFhLD_81{stroke-dasharray:79 81;stroke-dashoffset:80;animation:peAkFhLD_draw 3000ms ease-out 0ms forwards;}.peAkFhLD_82{stroke-dasharray:36 38;stroke-dashoffset:37;animation:peAkFhLD_draw 3000ms ease-out 0ms forwards;}.peAkFhLD_83{stroke-dasharray:93 95;stroke-dashoffset:94;animation:peAkFhLD_draw 3000ms ease-out 0ms forwards;}.peAkFhLD_84{stroke-dasharray:75 77;stroke-dashoffset:76;animation:peAkFhLD_draw 3000ms ease-out 0ms forwards;}.peAkFhLD_85{stroke-dasharray:69 71;stroke-dashoffset:70;animation:peAkFhLD_draw 3000ms ease-out 0ms forwards;}.peAkFhLD_86{stroke-dasharray:36 38;stroke-dashoffset:37;animation:peAkFhLD_draw 3000ms ease-out 0ms forwards;}.peAkFhLD_87{stroke-dasharray:98 100;stroke-dashoffset:99;animation:peAkFhLD_draw 3000ms ease-out 0ms forwards;}.peAkFhLD_88{stroke-dasharray:62 64;stroke-dashoffset:63;animation:peAkFhLD_draw 3000ms ease-out 0ms forwards;}.peAkFhLD_89{stroke-dasharray:75 77;stroke-dashoffset:76;animation:peAkFhLD_draw 3000ms ease-out 0ms forwards;}.peAkFhLD_90{stroke-dasharray:38 40;stroke-dashoffset:39;animation:peAkFhLD_draw 3000ms ease-out 0ms forwards;}.peAkFhLD_91{stroke-dasharray:91 93;stroke-dashoffset:92;animation:peAkFhLD_draw 3000ms ease-out 0ms forwards;}.peAkFhLD_92{stroke-dasharray:62 64;stroke-dashoffset:63;animation:peAkFhLD_draw 3000ms ease-out 0ms forwards;}.peAkFhLD_93{stroke-dasharray:82 84;stroke-dashoffset:83;animation:peAkFhLD_draw 3000ms ease-out 0ms forwards;}.peAkFhLD_94{stroke-dasharray:62 64;stroke-dashoffset:63;animation:peAkFhLD_draw 3000ms ease-out 0ms forwards;}.peAkFhLD_95{stroke-dasharray:61 63;stroke-dashoffset:62;animation:peAkFhLD_draw 3000ms ease-out 0ms forwards;}.peAkFhLD_96{stroke-dasharray:38 40;stroke-dashoffset:39;animation:peAkFhLD_draw 3000ms ease-out 0ms forwards;}.peAkFhLD_97{stroke-dasharray:69 71;stroke-dashoffset:70;animation:peAkFhLD_draw 3000ms ease-out 0ms forwards;}.peAkFhLD_98{stroke-dasharray:75 77;stroke-dashoffset:76;animation:peAkFhLD_draw 3000ms ease-out 0ms forwards;}.peAkFhLD_99{stroke-dasharray:227 229;stroke-dashoffset:228;animation:peAkFhLD_draw 3000ms ease-out 0ms forwards;}@keyframes peAkFhLD_draw{100%{stroke-dashoffset:0;}}@keyframes peAkFhLD_fade{0%{stroke-opacity:1;}94.44444444444444%{stroke-opacity:1;}100%{stroke-opacity:0;}}</style></svg>