<svg id="Capa_1" data-name="Capa 1" xmlns="http://www.w3.org/2000/svg" xmlns:xlink="http://www.w3.org/1999/xlink" viewBox="0 0 1171.75 1035.32" style=""><defs><style>.cls-1,.cls-2,.cls-3{fill:none;stroke-miterlimit:10;stroke-width:26px;}.cls-1{stroke:url(#Degradado_sin_nombre_14);}.cls-2{stroke:url(#Degradado_sin_nombre_13);}.cls-3{stroke:url(#Degradado_sin_nombre_8);}</style><linearGradient id="Degradado_sin_nombre_14" x1="734.13" y1="540.82" x2="1557.75" y2="540.82" gradientUnits="userSpaceOnUse"><stop offset="0" stop-color="#2f3999"></stop><stop offset="0.17" stop-color="#303e9d"></stop><stop offset="0.38" stop-color="#324da9"></stop><stop offset="0.6" stop-color="#3666bd"></stop><stop offset="0.84" stop-color="#3c88d8"></stop><stop offset="0.99" stop-color="#40a2ed"></stop></linearGradient><linearGradient id="Degradado_sin_nombre_13" x1="544.45" y1="694.91" x2="928" y2="694.91" gradientUnits="userSpaceOnUse"><stop offset="0.01" stop-color="#40a2ed"></stop><stop offset="0.16" stop-color="#3c88d8"></stop><stop offset="0.4" stop-color="#3666bd"></stop><stop offset="0.62" stop-color="#324da9"></stop><stop offset="0.83" stop-color="#303e9d"></stop><stop offset="1" stop-color="#2f3999"></stop></linearGradient><linearGradient id="Degradado_sin_nombre_8" x1="386" y1="409.14" x2="768.39" y2="409.14" gradientUnits="userSpaceOnUse"><stop offset="0.01" stop-color="#40a2ed"></stop><stop offset="1" stop-color="#2f3999"></stop></linearGradient></defs><title>logoanimacion</title><path class="cls-1 TpRXAVrU_0" d="M1371.43,862.72c-32.36,57.12-58.64,102.42-84.58,147.14-12.89,24-28.92,36.18-57.21,35.6q-99.41-2-198.9,0c-26,.48-41.8-9.67-54.08-32.1-31.06-56.71-63.79-112.52-95.85-168.68-7.27-12.74-15.47-25.56-6.9-40.71,28.45-50.32,63.29-108.11,93.73-161.06a8.81,8.81,0,0,1,15.27,0c9.49,16.57,16.24,32.54,23.84,45.25,28.23,47.17,55,95.22,83.29,142.33,15.55,25.89,44.14,34.3,65,21.16,19.87-12.56,24.16-36.43,8.54-64-68.47-121-137.64-241.64-206.55-362.42Q856,248.21,755.19,71.19c-3.11-5.46-5.3-11.45-7.43-16.84a8.69,8.69,0,0,1,1-8.31c8.59-11.78,21.34-9.34,32.37-9.36,145.55-.3,291.11.28,436.65-.52,31.14-.17,49.87,11.92,65.46,39.25q122.61,214.85,248.57,427.77c14.49,24.64,18.69,46.75,2.83,72.16-26.91,43.13-47.85,89.92-82.09,138.08a8.83,8.83,0,0,1-14.8-.66c-31-52.77-59.32-100.46-86.93-148.56C1294.48,466,1236.4,368.78,1183.68,268.71c-20.85-39.58-47-53.89-88.48-48.34-8.67,1.17-14.93,2.38-22.72,9.29a8.88,8.88,0,0,0-2.91,5.73c-1.94,18.72,5,23.72,12.18,36.12,96,166.74,191.58,333.75,289.81,499.19C1391.57,804.42,1390,830,1371.43,862.72Z" transform="translate(-386 -23.16)"></path><path class="cls-2 TpRXAVrU_1" d="M871.83,1000.64c-25.43-45-49.83-89.64-78.06-133.8-27.4-38.22-21.77-68.77,1-105.4,37.5-60.3,71.16-123,106.48-184.63,9-15.62,19.51-32.38,10-50C882.27,473.45,848.78,414.69,816,357c-22,33-37.82,64.66-53.74,91.84-64.51,110.05-128,220.73-193.11,330.4-15,25.19-16,46.35-.68,71.59,31.8,52.46,62.19,105.82,91.61,159.66,13.14,24.06,30.27,35.31,58.08,34,33.84-1.6,67.85.54,101.73-.57L898,1044Z" transform="translate(-386 -23.16)"></path><path class="cls-3 TpRXAVrU_2" d="M499,723c7-11,9.21-12.79,10.71-15.39Q628.62,501.84,747.32,296c11.84-20.48,10.21-39.09-2-59.07C723.4,201,703.37,164,681.66,128,675.36,117.6,666,101,658,92c-25,34-49.37,78.49-70.53,114.42q-87.37,148.38-174,297.19c-9.94,17-20.66,34.12-10.06,54.35C431.71,612,463.63,669.26,499,723Z" transform="translate(-386 -23.16)"></path><style data-made-with="vivus-instant">.TpRXAVrU_0{stroke-dasharray:4836 4838;stroke-dashoffset:4837;animation:TpRXAVrU_draw 4000ms ease-in-out 0ms forwards;}.TpRXAVrU_1{stroke-dasharray:1782 1784;stroke-dashoffset:1783;animation:TpRXAVrU_draw 4000ms ease-in-out 0ms forwards;}.TpRXAVrU_2{stroke-dasharray:1454 1456;stroke-dashoffset:1455;animation:TpRXAVrU_draw 4000ms ease-in-out 0ms forwards;}@keyframes TpRXAVrU_draw{100%{stroke-dashoffset:0;}}@keyframes TpRXAVrU_fade{0%{stroke-opacity:1;}95.1219512195122%{stroke-opacity:1;}100%{stroke-opacity:0;}}</style></svg>